<svg width="32" height="32" viewBox="0 0 32 32" fill="none" xmlns="http://www.w3.org/2000/svg">
<path d="M12.0399 28.92L15.1466 26.3067C15.6132 25.9067 16.3866 25.9067 16.8532 26.3067L19.9599 28.92C20.6799 29.28 21.5599 28.92 21.8266 28.1467L22.4132 26.3733C22.5599 25.9467 22.4132 25.32 22.0932 25L19.0666 21.96C18.8399 21.7467 18.6666 21.32 18.6666 21.0133V17.2133C18.6666 16.6533 19.0799 16.3867 19.5999 16.6L26.1466 19.4267C27.1732 19.8667 28.0132 19.32 28.0132 18.2V16.48C28.0132 15.5867 27.3466 14.56 26.5199 14.2133L19.0666 11C18.8532 10.9067 18.6666 10.6267 18.6666 10.3867V6.38666C18.6666 5.13333 17.7466 3.65333 16.6266 3.07999C16.2266 2.87999 15.7599 2.87999 15.3599 3.07999C14.2399 3.65333 13.3199 5.14666 13.3199 6.39999V10.4C13.3199 10.64 13.1332 10.92 12.9199 11.0133L5.47991 14.2267C4.65324 14.56 3.98657 15.5867 3.98657 16.48V18.2C3.98657 19.32 4.82657 19.8667 5.85324 19.4267L12.3999 16.6C12.9066 16.3733 13.3332 16.6533 13.3332 17.2133V21.0133C13.3332 21.32 13.1599 21.7467 12.9466 21.96L9.91991 25C9.59991 25.32 9.45324 25.9333 9.59991 26.3733L10.1866 28.1467C10.4266 28.92 11.3066 29.2933 12.0399 28.92Z" stroke="#080318" stroke-width="3" stroke-linecap="round" stroke-linejoin="round"/>
</svg>
