<svg width="32" height="33" viewBox="0 0 32 33" fill="none" xmlns="http://www.w3.org/2000/svg">
<path d="M2.66666 29.8333H29.3333" stroke="white" stroke-width="3" stroke-miterlimit="10" stroke-linecap="round" stroke-linejoin="round"/>
<path d="M20.0133 29.8199L4.01335 29.8466L4 9.92663C4 9.0333 4.45335 8.20659 5.18669 7.71325L10.52 4.15328C11.4134 3.55328 12.5866 3.55328 13.48 4.15328L18.8133 7.71325C19.56 8.20659 20 9.0333 20 9.92663L20.0133 29.8199Z" stroke="white" stroke-width="3" stroke-miterlimit="10" stroke-linecap="round" stroke-linejoin="round"/>
<path d="M26.64 29.8467V24.5" stroke="white" stroke-width="3" stroke-miterlimit="10" stroke-linecap="round" stroke-linejoin="round"/>
<path d="M26.6667 16.5C25.2 16.5 24 17.7 24 19.1667V21.8333C24 23.3 25.2 24.5 26.6667 24.5C28.1333 24.5 29.3333 23.3 29.3333 21.8333V19.1667C29.3333 17.7 28.1333 16.5 26.6667 16.5Z" stroke="white" stroke-width="3" stroke-miterlimit="10" stroke-linecap="round" stroke-linejoin="round"/>
<path d="M4 19.1667H20" stroke="white" stroke-width="3" stroke-miterlimit="10" stroke-linecap="round" stroke-linejoin="round"/>
<path d="M12 29.8333V24.8333" stroke="white" stroke-width="3" stroke-miterlimit="10" stroke-linecap="round" stroke-linejoin="round"/>
<path d="M12 14.5C13.1046 14.5 14 13.6046 14 12.5C14 11.3954 13.1046 10.5 12 10.5C10.8954 10.5 10 11.3954 10 12.5C10 13.6046 10.8954 14.5 12 14.5Z" stroke="white" stroke-width="3" stroke-miterlimit="10" stroke-linecap="round" stroke-linejoin="round"/>
</svg>
