<svg width="20" height="20" viewBox="0 0 20 20" fill="none" xmlns="http://www.w3.org/2000/svg">
<path d="M9.20841 12.4584L7.66675 14C7.34175 14.325 6.82508 14.325 6.49175 14.0084C6.40008 13.9167 6.30841 13.8334 6.21675 13.7417C5.35841 12.875 4.58341 11.9667 3.89175 11.0167C3.20841 10.0667 2.65841 9.11669 2.25841 8.17502C1.86675 7.22502 1.66675 6.31669 1.66675 5.45002C1.66675 4.88335 1.76675 4.34169 1.96675 3.84169C2.16675 3.33335 2.48341 2.86669 2.92508 2.45002C3.45841 1.92502 4.04175 1.66669 4.65841 1.66669C4.89175 1.66669 5.12508 1.71669 5.33341 1.81669C5.55008 1.91669 5.74175 2.06669 5.89175 2.28335L7.82508 5.00835C7.97508 5.21669 8.08341 5.40835 8.15841 5.59169C8.23341 5.76669 8.27508 5.94169 8.27508 6.10002C8.27508 6.30002 8.21675 6.50002 8.10008 6.69169C7.99175 6.88335 7.83341 7.08335 7.63341 7.28335L7.00008 7.94169C6.90841 8.03335 6.86675 8.14169 6.86675 8.27502C6.86675 8.34169 6.87508 8.40002 6.89175 8.46669C6.91675 8.53335 6.94175 8.58335 6.95842 8.63335C7.10842 8.90835 7.36675 9.26669 7.73341 9.70002C8.10841 10.1334 8.50841 10.575 8.94175 11.0167C9.02508 11.1 9.11675 11.1834 9.20008 11.2667C9.53341 11.5917 9.54175 12.125 9.20841 12.4584Z" fill="#B88DFF"/>
<path d="M18.3083 15.275C18.3083 15.5083 18.2667 15.75 18.1833 15.9833C18.1583 16.05 18.1333 16.1167 18.1 16.1833C17.9583 16.4833 17.775 16.7667 17.5333 17.0333C17.125 17.4833 16.675 17.8083 16.1667 18.0167C16.1583 18.0167 16.15 18.025 16.1417 18.025C15.65 18.225 15.1167 18.3333 14.5417 18.3333C13.6917 18.3333 12.7833 18.1333 11.825 17.725C10.8667 17.3167 9.90833 16.7667 8.95833 16.075C8.63333 15.8333 8.30833 15.5917 8 15.3333L10.725 12.6083C10.9583 12.7833 11.1667 12.9167 11.3417 13.0083C11.3833 13.025 11.4333 13.05 11.4917 13.075C11.5583 13.1 11.625 13.1083 11.7 13.1083C11.8417 13.1083 11.95 13.0583 12.0417 12.9667L12.675 12.3417C12.8833 12.1333 13.0833 11.975 13.275 11.875C13.4667 11.7583 13.6583 11.7 13.8667 11.7C14.025 11.7 14.1917 11.7333 14.375 11.8083C14.5583 11.8833 14.75 11.9917 14.9583 12.1333L17.7167 14.0917C17.9333 14.2417 18.0833 14.4167 18.175 14.625C18.2583 14.8333 18.3083 15.0417 18.3083 15.275Z" fill="#B88DFF"/>
</svg>
