<svg width="32" height="33" viewBox="0 0 32 33" fill="none" xmlns="http://www.w3.org/2000/svg">
<path d="M22.2667 25.8067H9.73335C9.17335 25.8067 8.54669 25.3667 8.36002 24.8333L2.84002 9.39333C2.05335 7.18 2.97335 6.5 4.86669 7.86L10.0667 11.58C10.9334 12.18 11.92 11.8733 12.2934 10.9L14.64 4.64667C15.3867 2.64667 16.6267 2.64667 17.3734 4.64667L19.72 10.9C20.0934 11.8733 21.08 12.18 21.9334 11.58L26.8134 8.1C28.8934 6.60667 29.8934 7.36667 29.04 9.78L23.6534 24.86C23.4534 25.3667 22.8267 25.8067 22.2667 25.8067Z" stroke="white" stroke-width="3" stroke-linecap="round" stroke-linejoin="round"/>
<path d="M8.66675 29.8333H23.3334" stroke="white" stroke-width="3" stroke-linecap="round" stroke-linejoin="round"/>
<path d="M12.6667 19.1667H19.3334" stroke="white" stroke-width="3" stroke-linecap="round" stroke-linejoin="round"/>
</svg>
