<svg width="33" height="32" viewBox="0 0 33 32" fill="none" xmlns="http://www.w3.org/2000/svg">
<path d="M22.9334 25.3067H10.4001C9.8401 25.3067 9.21344 24.8667 9.02677 24.3333L3.50677 8.89333C2.7201 6.68 3.6401 6 5.53344 7.36L10.7334 11.08C11.6001 11.68 12.5868 11.3733 12.9601 10.4L15.3068 4.14667C16.0534 2.14667 17.2934 2.14667 18.0401 4.14667L20.3868 10.4C20.7601 11.3733 21.7468 11.68 22.6001 11.08L27.4801 7.6C29.5601 6.10667 30.5601 6.86667 29.7068 9.28L24.3201 24.36C24.1201 24.8667 23.4934 25.3067 22.9334 25.3067Z" stroke="#080318" stroke-width="3" stroke-linecap="round" stroke-linejoin="round"/>
<path d="M9.3335 29.3333H24.0002" stroke="#080318" stroke-width="3" stroke-linecap="round" stroke-linejoin="round"/>
<path d="M13.3335 18.6667H20.0002" stroke="#080318" stroke-width="3" stroke-linecap="round" stroke-linejoin="round"/>
</svg>
