<svg width="20" height="20" viewBox="0 0 20 20" fill="none" xmlns="http://www.w3.org/2000/svg">
<path fill-rule="evenodd" clip-rule="evenodd" d="M13.2332 17.4333C13.2582 17.5667 13.1832 17.7083 13.0582 17.7583C12.1165 18.1333 11.0832 18.3333 10.0166 18.3333C8.17491 18.3333 6.47489 17.7417 5.09989 16.725C4.98322 16.6417 4.94992 16.475 5.02492 16.35C5.48325 15.5333 7.27488 12.9083 11.2332 11.4417C11.3832 11.3833 11.5499 11.4583 11.5999 11.6083C12.5915 14.2667 13.0582 16.5167 13.2332 17.4333Z" fill="#B88DFF"/>
<path fill-rule="evenodd" clip-rule="evenodd" d="M18.1835 11.575C17.8001 13.625 16.6501 15.4083 15.0418 16.625C14.8668 16.7583 14.6168 16.6583 14.5751 16.4499C14.4001 15.5499 13.9751 13.6083 13.1584 11.2999C13.1001 11.1249 13.2168 10.9333 13.4001 10.9083C15.4751 10.6583 17.2918 11.0583 17.9751 11.2416C18.1168 11.2916 18.2085 11.4333 18.1835 11.575Z" fill="#B88DFF"/>
<path fill-rule="evenodd" clip-rule="evenodd" d="M17.9918 9.84996C17.1418 9.69996 14.9751 9.38328 12.7584 9.62495C12.6251 9.64161 12.5084 9.56661 12.4501 9.44161C12.4168 9.36661 12.3918 9.29162 12.3584 9.21662C12.2251 8.90829 12.0834 8.59163 11.9418 8.28329C11.8668 8.13329 11.9418 7.94995 12.0918 7.88328C14.4251 6.87495 15.7251 5.57495 16.2334 4.99162C16.3584 4.84995 16.5751 4.8583 16.6918 5.0083C17.6501 6.2833 18.2418 7.84162 18.3334 9.52495C18.3418 9.73328 18.1751 9.8833 17.9918 9.84996Z" fill="#B88DFF"/>
<path fill-rule="evenodd" clip-rule="evenodd" d="M15.3666 3.99171C14.9333 4.51671 13.7166 5.7667 11.4083 6.68336C11.275 6.7417 11.1166 6.68336 11.0416 6.55003C9.97496 4.6167 8.84161 2.9917 8.31661 2.25837C8.19161 2.08337 8.29164 1.83338 8.49997 1.80004C8.98331 1.71671 9.49164 1.67505 10.0083 1.67505C12.025 1.67505 13.8833 2.39171 15.325 3.59171C15.45 3.68337 15.4666 3.86671 15.3666 3.99171Z" fill="#B88DFF"/>
<path fill-rule="evenodd" clip-rule="evenodd" d="M9.18347 7.36663C6.02514 8.1583 3.23344 8.26664 2.21677 8.28331C2.0251 8.28331 1.88346 8.09997 1.93346 7.91664C2.53346 5.5833 4.13345 3.63331 6.24178 2.55831C6.36678 2.49164 6.52512 2.5333 6.60845 2.64996C7.04178 3.24996 8.21678 4.94164 9.36678 6.93331C9.45845 7.09998 9.37514 7.31663 9.18347 7.36663Z" fill="#B88DFF"/>
<path fill-rule="evenodd" clip-rule="evenodd" d="M10.7667 9.6666C10.8417 9.82493 10.7501 10.0166 10.5834 10.0749C6.89172 11.2666 4.68338 14.2249 4.01671 15.2416C3.90838 15.4083 3.67505 15.4166 3.55005 15.2666C2.38338 13.8333 1.67505 12.1916 1.67505 10.1999V10.0499C1.67505 9.88326 1.80837 9.74992 1.97504 9.75825C3.02504 9.79992 6.45005 9.65825 10.0084 8.63325C10.1417 8.59158 10.2917 8.65827 10.35 8.78327C10.4917 9.07493 10.6334 9.3666 10.7667 9.6666Z" fill="#B88DFF"/>
</svg>
