<svg width="83" height="24" viewBox="0 0 83 24" fill="none" xmlns="http://www.w3.org/2000/svg">
<path d="M1.33325 11.6078L41.3333 11.608L81.3333 11.6078" stroke="#B88DFF" stroke-width="2" stroke-linecap="round" stroke-dasharray="2 2"/>
<path d="M42.7032 20.0501L44.7132 15.3801L45.1532 14.3401C45.2332 14.1801 45.4432 14.0401 45.6232 14.0401L48.6832 14.0401C49.6432 14.0401 50.7832 13.3301 51.2232 12.4701C51.3732 12.1701 51.3732 11.8101 51.2232 11.5101C50.7832 10.6601 49.6332 9.95006 48.6732 9.95006L45.6132 9.95006C45.4332 9.95006 45.2232 9.81006 45.1432 9.65006L42.6932 3.95006C42.4332 3.32006 41.6432 2.81006 40.9632 2.81006L39.6432 2.81006C38.7932 2.81006 38.3732 3.45006 38.7132 4.24006L40.8732 9.25006C41.0432 9.64006 40.8332 9.96006 40.4032 9.96006L39.2932 9.96006L37.4932 9.96006C37.2632 9.96006 36.9332 9.83006 36.7732 9.67006L34.4432 7.35006C34.2032 7.11006 33.7332 7.00006 33.3932 7.11006L32.0332 7.56006C31.4432 7.74006 31.1632 8.41006 31.4432 8.96006L33.4432 11.3401C33.7532 11.7001 33.7532 12.2901 33.4432 12.6501L31.4432 15.0301C31.1732 15.5801 31.4432 16.2501 32.0332 16.4501L33.3932 16.9001C33.7232 17.0101 34.2032 16.9001 34.4432 16.6601L36.7732 14.3401C36.9332 14.1701 37.2632 14.0401 37.4932 14.0401L40.4032 14.0401C40.8332 14.0401 41.0332 14.3501 40.8732 14.7501L38.7132 19.7601C38.3732 20.5501 38.7932 21.1901 39.6432 21.1901L40.9632 21.1901C41.6432 21.1901 42.4332 20.6801 42.7032 20.0501Z" fill="#B88DFF"/>
</svg>
