<svg width="203" height="50" viewBox="0 0 203 50" fill="none" xmlns="http://www.w3.org/2000/svg">
<path d="M1.5 48.4071C37.7018 21.9953 116.5 -17.0929 201.5 48.4071" stroke="#B88DFF" stroke-width="2" stroke-dasharray="2 2"/>
<path d="M104.87 20.0501L106.88 15.3801L107.32 14.3401C107.4 14.1801 107.61 14.0401 107.79 14.0401L110.85 14.0401C111.81 14.0401 112.95 13.3301 113.39 12.4701C113.54 12.1701 113.54 11.8101 113.39 11.5101C112.95 10.6601 111.8 9.95006 110.84 9.95006L107.78 9.95006C107.6 9.95006 107.39 9.81006 107.31 9.65006L104.86 3.95006C104.6 3.32006 103.81 2.81006 103.13 2.81006L101.81 2.81006C100.96 2.81006 100.54 3.45006 100.88 4.24006L103.04 9.25006C103.21 9.64006 103 9.96006 102.57 9.96006L101.46 9.96006L99.66 9.96006C99.43 9.96006 99.1 9.83006 98.94 9.67006L96.61 7.35006C96.37 7.11006 95.9 7.00006 95.56 7.11006L94.2 7.56006C93.61 7.74006 93.33 8.41006 93.61 8.96006L95.61 11.3401C95.92 11.7001 95.92 12.2901 95.61 12.6501L93.61 15.0301C93.34 15.5801 93.61 16.2501 94.2 16.4501L95.56 16.9001C95.89 17.0101 96.37 16.9001 96.61 16.6601L98.94 14.3401C99.1 14.1701 99.43 14.0401 99.66 14.0401L102.57 14.0401C103 14.0401 103.2 14.3501 103.04 14.7501L100.88 19.7601C100.54 20.5501 100.96 21.1901 101.81 21.1901L103.13 21.1901C103.81 21.1901 104.6 20.6801 104.87 20.0501Z" fill="#B88DFF"/>
</svg>
