<svg width="147" height="40" viewBox="0 0 147 40" fill="none" xmlns="http://www.w3.org/2000/svg">
<g clip-path="url(#clip0_1_26)">
<path d="M6.04918 30.2378C7.67041 31.3687 10.2989 31.3687 11.9202 30.2378C13.5414 29.107 13.5414 27.2735 11.9202 26.1427C10.2989 25.0118 7.67041 25.0118 6.04918 26.1427C4.42794 27.2735 4.42794 29.107 6.04918 30.2378Z" fill="#B88DFF"/>
<path d="M22.8761 14.8812C25.308 16.5774 29.2507 16.5774 31.6826 14.8812C34.1144 13.1849 34.1144 10.4347 31.6826 8.7385C29.2507 7.04225 25.308 7.04225 22.8761 8.7385C20.4443 10.4347 20.4443 13.1849 22.8761 14.8812Z" fill="#B88DFF"/>
<path d="M13.9435 22.5594C15.97 23.9729 19.2557 23.9729 21.2822 22.5594C23.3087 21.1458 23.3087 18.8541 21.2822 17.4405C19.2557 16.027 15.97 16.027 13.9435 17.4405C11.917 18.8541 11.917 21.1458 13.9435 22.5594Z" fill="#B88DFF"/>
<path d="M0.911942 21.5357C2.12786 22.3838 4.09926 22.3838 5.31519 21.5357C6.53111 20.6876 6.53111 19.3125 5.31519 18.4643C4.09926 17.6162 2.12786 17.6162 0.911942 18.4643C-0.303981 19.3125 -0.30398 20.6876 0.911942 21.5357Z" fill="#B88DFF"/>
<path d="M13.9435 6.17903C15.97 7.59257 19.2557 7.59257 21.2822 6.17903C23.3087 4.76549 23.3087 2.47369 21.2822 1.06016C19.2557 -0.353385 15.97 -0.353386 13.9435 1.06016C11.917 2.47369 11.917 4.76549 13.9435 6.17903Z" fill="#B88DFF"/>
<path d="M6.04917 13.8574C7.6704 14.9883 10.2989 14.9883 11.9202 13.8574C13.5414 12.7266 13.5414 10.8931 11.9202 9.76231C10.2989 8.63148 7.6704 8.63148 6.04917 9.76231C4.42794 10.8931 4.42795 12.7266 6.04917 13.8574Z" fill="#B88DFF"/>
<path d="M13.9435 38.9399C15.97 40.3534 19.2557 40.3534 21.2822 38.9399C23.3087 37.5263 23.3087 35.2345 21.2822 33.821C19.2557 32.4075 15.97 32.4075 13.9435 33.821C11.917 35.2345 11.917 37.5263 13.9435 38.9399Z" fill="#B88DFF"/>
<path d="M33.5802 23.0714C36.0121 24.7676 39.9549 24.7676 42.3867 23.0714C44.8186 21.3752 44.8186 18.6249 42.3867 16.9287C39.9549 15.2324 36.0121 15.2324 33.5802 16.9287C31.1484 18.6249 31.1484 21.3752 33.5802 23.0714Z" fill="#B88DFF"/>
<path d="M22.8761 31.2615C25.308 32.9578 29.2507 32.9578 31.6826 31.2615C34.1144 29.5653 34.1144 26.8152 31.6826 25.1188C29.2507 23.4226 25.308 23.4226 22.8761 25.1188C20.4443 26.8152 20.4443 29.5653 22.8761 31.2615Z" fill="#B88DFF"/>
</g>
<path d="M69.7305 11.118V14.654H62.1904V18.684H68.0144V22.064H62.1904V29.5H57.7444V11.118H69.7305ZM76.46 10.26V29.5H72.014V10.26H76.46ZM82.8836 14.992L86.3676 23.884L89.6176 14.992H94.5316L85.4836 36.416H80.5956L84.0016 28.954L77.9176 14.992H82.8836ZM109.216 24.326C109.216 25.2967 108.965 26.1893 108.462 27.004C107.977 27.8187 107.249 28.4687 106.278 28.954C105.325 29.4393 104.163 29.682 102.794 29.682C100.731 29.682 99.0328 29.1793 97.6981 28.174C96.3635 27.1687 95.6355 25.7647 95.5141 23.962H100.246C100.315 24.6553 100.558 25.2013 100.974 25.6C101.407 25.9987 101.953 26.198 102.612 26.198C103.184 26.198 103.635 26.042 103.964 25.73C104.293 25.418 104.458 25.002 104.458 24.482C104.458 24.014 104.302 23.624 103.99 23.312C103.695 23 103.323 22.7487 102.872 22.558C102.421 22.35 101.797 22.1073 101 21.83C99.8388 21.4313 98.8855 21.05 98.1401 20.686C97.4121 20.3047 96.7795 19.75 96.2421 19.022C95.7221 18.2767 95.4621 17.3147 95.4621 16.136C95.4621 15.044 95.7395 14.0993 96.2941 13.302C96.8488 12.5047 97.6115 11.898 98.5821 11.482C99.5701 11.0487 100.697 10.832 101.962 10.832C104.007 10.832 105.628 11.3173 106.824 12.288C108.037 13.2587 108.722 14.5933 108.878 16.292H104.068C103.981 15.6853 103.756 15.2087 103.392 14.862C103.045 14.498 102.569 14.316 101.962 14.316C101.442 14.316 101.017 14.4547 100.688 14.732C100.376 15.0093 100.22 15.4167 100.22 15.954C100.22 16.3873 100.359 16.76 100.636 17.072C100.931 17.3667 101.295 17.6093 101.728 17.8C102.161 17.9907 102.785 18.2333 103.6 18.528C104.779 18.9267 105.741 19.3253 106.486 19.724C107.231 20.1053 107.873 20.6687 108.41 21.414C108.947 22.1593 109.216 23.13 109.216 24.326ZM120.878 14.836C122.542 14.836 123.859 15.3907 124.83 16.5C125.818 17.6093 126.312 19.1347 126.312 21.076V29.5H121.866V21.596C121.866 20.6253 121.606 19.8713 121.086 19.334C120.583 18.7793 119.907 18.502 119.058 18.502C118.157 18.502 117.437 18.788 116.9 19.36C116.38 19.932 116.12 20.7467 116.12 21.804V29.5H111.674V10.26H116.12V17.644C116.536 16.7773 117.151 16.0927 117.966 15.59C118.798 15.0873 119.769 14.836 120.878 14.836ZM134.756 14.81C135.866 14.81 136.819 15.0613 137.616 15.564C138.414 16.0667 139.003 16.7513 139.384 17.618V14.992H143.804V29.5H139.384V26.874C139.003 27.7407 138.414 28.4253 137.616 28.928C136.819 29.4307 135.866 29.682 134.756 29.682C133.56 29.682 132.486 29.3873 131.532 28.798C130.596 28.1913 129.851 27.3247 129.296 26.198C128.759 25.0713 128.49 23.754 128.49 22.246C128.49 20.7207 128.759 19.4033 129.296 18.294C129.851 17.1673 130.596 16.3093 131.532 15.72C132.486 15.1133 133.56 14.81 134.756 14.81ZM136.186 18.71C135.233 18.71 134.462 19.022 133.872 19.646C133.3 20.27 133.014 21.1367 133.014 22.246C133.014 23.3553 133.3 24.222 133.872 24.846C134.462 25.47 135.233 25.782 136.186 25.782C137.122 25.782 137.885 25.4613 138.474 24.82C139.081 24.1787 139.384 23.3207 139.384 22.246C139.384 21.154 139.081 20.296 138.474 19.672C137.885 19.0307 137.122 18.71 136.186 18.71Z" fill="white"/>
<defs>
<clipPath id="clip0_1_26">
<rect width="44.2105" height="40" fill="white"/>
</clipPath>
</defs>
</svg>
