<svg width="354" height="222" viewBox="0 0 354 222" fill="none" xmlns="http://www.w3.org/2000/svg">
<path d="M183 96.264V24.8352C183 13.9296 194.918 7.21147 204.248 12.8574L212.809 18.0381C261.193 47.3159 299.076 91.149 321.035 143.264L340.461 189.367C345.361 200.997 333.581 212.664 321.999 207.652L230.022 167.849C201.478 155.496 183 127.366 183 96.264Z" fill="#241F35"/>
<path d="M171 96.264V24.8352C171 13.9296 159.082 7.21147 149.752 12.8574L141.191 18.0381C92.8065 47.3159 54.9242 91.149 32.9651 143.264L13.5395 189.367C8.63908 200.997 20.4188 212.664 32.0011 207.652L123.978 167.849C152.522 155.496 171 127.366 171 96.264Z" fill="#241F35"/>
</svg>
